<svg width="22" height="22" viewBox="0 0 22 22" fill="none" xmlns="http://www.w3.org/2000/svg">
<path d="M19.6429 0H2.35714C1.0558 0 0 1.0558 0 2.35714V19.6429C0 20.9442 1.0558 22 2.35714 22H19.6429C20.9442 22 22 20.9442 22 19.6429V2.35714C22 1.0558 20.9442 0 19.6429 0ZM18.0714 12.375C18.0714 12.6991 17.8062 12.9643 17.4821 12.9643H12.9643V17.4821C12.9643 17.8062 12.6991 18.0714 12.375 18.0714H9.625C9.30089 18.0714 9.03571 17.8062 9.03571 17.4821V12.9643H4.51786C4.19375 12.9643 3.92857 12.6991 3.92857 12.375V9.625C3.92857 9.30089 4.19375 9.03571 4.51786 9.03571H9.03571V4.51786C9.03571 4.19375 9.30089 3.92857 9.625 3.92857H12.375C12.6991 3.92857 12.9643 4.19375 12.9643 4.51786V9.03571H17.4821C17.8062 9.03571 18.0714 9.30089 18.0714 9.625V12.375Z" fill="#8E3C4E"/>
</svg>
